<svg xmlns="http://www.w3.org/2000/svg" viewBox="0 0 500 500"><g id="freepik--background-complete--inject-2"><path d="M386.12,470.76c0,3.48-57.36,6.29-128.11,6.29s-128.1-2.81-128.1-6.29,57.35-6.29,128.1-6.29S386.12,467.29,386.12,470.76Z" style="fill:#e0e0e0"></path><polygon points="255.55 430.67 267.68 421.47 285.25 421.47 296.08 431.44 255.55 430.67" style="fill:#e0e0e0"></polygon><polygon points="308.99 421.07 320.97 404.03 350.92 400.34 366.07 412.82 391.46 416.93 399.55 421.47 308.99 421.07" style="fill:#e0e0e0"></polygon><path d="M400.36,90.88c7.81-2.64,11-7.5,13.5-13.42,2.69-6.44,2.8-11.52,1.79-18a30.9,30.9,0,0,0-6.11-14.13,85.13,85.13,0,0,0-12.49-12.9c-12.79-11.07-34.6-14.28-49.09-5.55l-1,.64c-17.08,11-10.43,29.76-10.43,29.76a36.41,36.41,0,0,0-4.08-1c-6.63-1-22.82-3.56-37.36,13.16-8.82,10.14-10.69,22.93-6.59,38.52h0c4.12,15.69,6.72,18,6.72,18s-26.28,13.2-8.12,24.84c-13.68-1.66-16.15,11.93-16.15,11.93a15.42,15.42,0,0,0,3.29,13.52,9.83,9.83,0,0,0,8.51,3.73h0a23.44,23.44,0,0,0,7.52-1.79,9.67,9.67,0,0,0-3,4.84h0c-.76,2.85-.55,6.94,2.87,12.31,7.21,11.33,25,9.18,25.63,9.09v0a35.66,35.66,0,0,0-4.57,4.66c-2.1,2.59-4,5.86-3.34,8.7,1.23,5.4,11.69,17.47,13.17,19.15l.17.2s-15.27,13.81-8.87,24.71l10.52,21.34a223.69,223.69,0,0,0,25.51-43.33,106.08,106.08,0,0,0,11.47-14.26c5.14-7.78,9.42-17.22,6.31-24.13-2.95-6.57-8.69-10.1-13.95-12a38.2,38.2,0,0,0-11.31-2.2s3.72-6.44-1.29-9.58a14.1,14.1,0,0,0-4.67-2,101.51,101.51,0,0,0,10.65-1.31c12.53-2.22,30.35-7.83,35.87-22,8.82-22.62-6.21-40.22-6.21-40.22s7.68-.47,10.06-7.61S384,93.76,384,93.76h0l-.51-.87A41.35,41.35,0,0,0,400.36,90.88Z" style="fill:#ebebeb"></path><path d="M231.27,328c0,.08.14-.07.4-.35C231.44,327.78,231.28,327.91,231.27,328Z" style="fill:#e0e0e0"></path><path d="M295.66,291.55,298,280.89,292.63,292l-17.17,4,3.37-11.29,9-6.72-7.73,2.46L282.16,260l-8.83,36.3-6.22,5.39-7.48-9.47,5.51,11.81L253.22,321l-23.87-32.45,5.06-6.38-5.49,3.35-2.52-36.05-.31,19.69-9.87-10,9.59,13.08-.32,15.37,8.77,14.05-16.1-.44,18.34,3.5,13.9,19.21,1.22,6.82-4-1.25s-12.39-10.58-12.76-10.69-3.85-5.58-3.85-5.58l1.23,4.34-14.91-6L236,322.38s-2.4,2.9-3.37,3.94c1.24-.84,4.93-2.76,4.93-2.76l8.09,6.36-10.4,3.15s-6.55-4-6.26-3.6,4.11,4.5,4.11,4.5l-14.21,6.81,27.17-9.1,6.27,2.8,4.79,26.76-3.47,28.3,9.54,0,1.7-28.22-6.3-39.23-.14-1.75,1.42-2.33,7.62-12.25,9.31-7.23,16.59-4.47,2.06.9L317,285.15Z" style="fill:#e0e0e0"></path><path d="M388.91,160.17l-4.43,5-12.55-1.31s-7.64,1.64-8.62,2.46-1.48,7.07-1.48,7.07v8.08h-4.92l-7.63,1.29v3.08l-3.2,6.48-5.42,3.59h-8.12l-2.47,3.29H320.8V388.88H427.3V160.17Z" style="fill:#f5f5f5"></path><rect x="427.3" y="160.17" width="31.99" height="228.72" transform="translate(886.59 549.05) rotate(180)" style="fill:#ebebeb"></rect><rect x="364.56" y="172.26" width="55.28" height="17.42" transform="translate(784.41 361.94) rotate(180)" style="fill:#e0e0e0"></rect><rect x="364.56" y="202.24" width="55.28" height="17.42" transform="translate(784.41 421.9) rotate(180)" style="fill:#e0e0e0"></rect><rect x="364.56" y="232.22" width="55.28" height="17.42" transform="translate(784.41 481.86) rotate(180)" style="fill:#e0e0e0"></rect><rect x="327.92" y="232.22" width="27.64" height="17.42" transform="translate(683.48 481.86) rotate(180)" style="fill:#e0e0e0"></rect><rect x="364.56" y="262.2" width="55.28" height="17.42" transform="translate(784.41 541.82) rotate(180)" style="fill:#e0e0e0"></rect><rect x="327.92" y="262.2" width="27.64" height="17.42" transform="translate(683.48 541.82) rotate(180)" style="fill:#e0e0e0"></rect><rect x="364.56" y="292.18" width="55.28" height="17.42" transform="translate(784.41 601.78) rotate(180)" style="fill:#e0e0e0"></rect><rect x="327.92" y="292.18" width="27.64" height="17.42" transform="translate(683.48 601.78) rotate(180)" style="fill:#e0e0e0"></rect><rect x="364.56" y="322.16" width="55.28" height="17.42" transform="translate(784.41 661.74) rotate(180)" style="fill:#e0e0e0"></rect><rect x="327.92" y="322.16" width="27.64" height="17.42" transform="translate(683.48 661.74) rotate(180)" style="fill:#e0e0e0"></rect><rect x="364.56" y="352.14" width="55.28" height="17.42" transform="translate(784.41 721.69) rotate(180)" style="fill:#e0e0e0"></rect><rect x="327.92" y="352.14" width="27.64" height="17.42" transform="translate(683.48 721.69) rotate(180)" style="fill:#e0e0e0"></rect><rect x="435.46" y="175.45" width="6.74" height="12.54" transform="translate(877.66 363.45) rotate(180)" style="fill:#e0e0e0"></rect><rect x="435.46" y="204.66" width="6.74" height="12.54" transform="translate(877.66 421.85) rotate(180)" style="fill:#e0e0e0"></rect><rect x="435.46" y="234.19" width="6.74" height="12.54" transform="translate(877.66 480.93) rotate(180)" style="fill:#e0e0e0"></rect><rect x="435.46" y="263.73" width="6.74" height="12.54" transform="translate(877.66 540) rotate(180)" style="fill:#e0e0e0"></rect><rect x="435.46" y="293.26" width="6.74" height="12.54" transform="translate(877.66 599.07) rotate(180)" style="fill:#e0e0e0"></rect><rect x="435.46" y="322.8" width="6.74" height="12.54" transform="translate(877.66 658.14) rotate(180)" style="fill:#e0e0e0"></rect><rect x="435.46" y="352.34" width="6.74" height="12.54" transform="translate(877.66 717.21) rotate(180)" style="fill:#e0e0e0"></rect><rect x="446.4" y="175.45" width="6.74" height="12.54" transform="translate(899.55 363.45) rotate(180)" style="fill:#e0e0e0"></rect><rect x="446.4" y="204.66" width="6.74" height="12.54" transform="translate(899.55 421.85) rotate(180)" style="fill:#e0e0e0"></rect><rect x="446.4" y="234.19" width="6.74" height="12.54" transform="translate(899.55 480.93) rotate(180)" style="fill:#e0e0e0"></rect><rect x="446.4" y="263.73" width="6.74" height="12.54" transform="translate(899.55 540) rotate(180)" style="fill:#e0e0e0"></rect><rect x="446.4" y="293.26" width="6.74" height="12.54" transform="translate(899.55 599.07) rotate(180)" style="fill:#e0e0e0"></rect><rect x="446.4" y="322.8" width="6.74" height="12.54" transform="translate(899.55 658.14) rotate(180)" style="fill:#e0e0e0"></rect><rect x="446.4" y="352.34" width="6.74" height="12.54" transform="translate(899.55 717.21) rotate(180)" style="fill:#e0e0e0"></rect><path d="M375.85,348.68l5.88,8.52,2.67,1.41s2.13,6.46,2.93,6.48,6.14,1.76,6.14,1.76,5.07.86,5.61-.59,3.74-4.48,3.74-4.48.53-9.64,1.6-9.64a45.47,45.47,0,0,0,5.6-1.29v-5Z" style="fill:#f5f5f5"></path><path d="M110,23.79l-4.71,7.92L92,29.62s-8.11,2.62-9.15,3.92-1.57,11.25-1.57,11.25V57.64H76L67.89,59.7v4.9l-3.4,10.32-5.76,5.71H50.1l-2.62,5.23H37.63v301.9H150.79v-364Z" style="fill:#f5f5f5"></path><rect x="150.79" y="23.79" width="33.99" height="363.96" transform="translate(335.57 411.55) rotate(180)" style="fill:#ebebeb"></rect><rect x="84.13" y="34.86" width="58.74" height="15.94" transform="translate(227 85.65) rotate(180)" style="fill:#e0e0e0"></rect><rect x="84.13" y="62.28" width="58.74" height="15.94" transform="translate(227 140.5) rotate(180)" style="fill:#e0e0e0"></rect><rect x="84.13" y="89.71" width="58.74" height="15.94" transform="translate(227 195.35) rotate(180)" style="fill:#e0e0e0"></rect><rect x="45.2" y="89.71" width="29.37" height="15.94" transform="translate(119.76 195.35) rotate(180)" style="fill:#e0e0e0"></rect><rect x="84.13" y="117.13" width="58.74" height="15.94" transform="translate(227 250.2) rotate(180)" style="fill:#e0e0e0"></rect><rect x="45.2" y="117.13" width="29.37" height="15.94" transform="translate(119.76 250.2) rotate(180)" style="fill:#e0e0e0"></rect><rect x="84.13" y="144.55" width="58.74" height="15.94" transform="translate(227 305.05) rotate(180)" style="fill:#e0e0e0"></rect><rect x="45.2" y="144.55" width="29.37" height="15.94" transform="translate(119.76 305.05) rotate(180)" style="fill:#e0e0e0"></rect><rect x="84.13" y="171.98" width="58.74" height="15.94" transform="translate(227 359.9) rotate(180)" style="fill:#e0e0e0"></rect><rect x="45.2" y="171.98" width="29.37" height="15.94" transform="translate(119.76 359.9) rotate(180)" style="fill:#e0e0e0"></rect><rect x="84.13" y="199.4" width="58.74" height="15.94" transform="translate(227 414.74) rotate(180)" style="fill:#e0e0e0"></rect><rect x="45.2" y="199.4" width="29.37" height="15.94" transform="translate(119.76 414.74) rotate(180)" style="fill:#e0e0e0"></rect><rect x="84.13" y="226.83" width="58.74" height="15.94" transform="translate(227 469.59) rotate(180)" style="fill:#e0e0e0"></rect><rect x="45.2" y="226.83" width="29.37" height="15.94" transform="translate(119.76 469.59) rotate(180)" style="fill:#e0e0e0"></rect><rect x="84.13" y="254.25" width="58.74" height="15.94" transform="translate(227 524.44) rotate(180)" style="fill:#e0e0e0"></rect><rect x="45.2" y="254.25" width="29.37" height="15.94" transform="translate(119.76 524.44) rotate(180)" style="fill:#e0e0e0"></rect><rect x="84.13" y="281.68" width="58.74" height="15.94" transform="translate(227 579.29) rotate(180)" style="fill:#e0e0e0"></rect><rect x="45.2" y="281.68" width="29.37" height="15.94" transform="translate(119.76 579.29) rotate(180)" style="fill:#e0e0e0"></rect><rect x="84.13" y="309.1" width="58.74" height="15.94" transform="translate(227 634.14) rotate(180)" style="fill:#e0e0e0"></rect><rect x="45.2" y="309.1" width="29.37" height="15.94" transform="translate(119.76 634.14) rotate(180)" style="fill:#e0e0e0"></rect><rect x="84.13" y="336.53" width="58.74" height="15.94" transform="translate(227 688.99) rotate(180)" style="fill:#e0e0e0"></rect><rect x="45.2" y="336.53" width="29.37" height="15.94" transform="translate(119.76 688.99) rotate(180)" style="fill:#e0e0e0"></rect><rect x="84.13" y="363.95" width="58.74" height="15.94" transform="translate(227 743.84) rotate(180)" style="fill:#e0e0e0"></rect><rect x="45.2" y="363.95" width="29.37" height="15.94" transform="translate(119.76 743.84) rotate(180)" style="fill:#e0e0e0"></rect><rect x="159.46" y="37.78" width="7.16" height="11.47" transform="translate(326.08 87.03) rotate(180)" style="fill:#e0e0e0"></rect><rect x="159.46" y="64.49" width="7.16" height="11.47" transform="translate(326.08 140.46) rotate(180)" style="fill:#e0e0e0"></rect><rect x="159.46" y="91.51" width="7.16" height="11.47" transform="translate(326.08 194.49) rotate(180)" style="fill:#e0e0e0"></rect><rect x="159.46" y="118.53" width="7.16" height="11.47" transform="translate(326.08 248.53) rotate(180)" style="fill:#e0e0e0"></rect><rect x="159.46" y="145.55" width="7.16" height="11.47" transform="translate(326.08 302.57) rotate(180)" style="fill:#e0e0e0"></rect><rect x="159.46" y="172.57" width="7.16" height="11.47" transform="translate(326.08 356.61) rotate(180)" style="fill:#e0e0e0"></rect><rect x="159.46" y="199.59" width="7.16" height="11.47" transform="translate(326.08 410.65) rotate(180)" style="fill:#e0e0e0"></rect><rect x="159.46" y="226.61" width="7.16" height="11.47" transform="translate(326.08 464.68) rotate(180)" style="fill:#e0e0e0"></rect><rect x="159.46" y="253.63" width="7.16" height="11.47" transform="translate(326.08 518.72) rotate(180)" style="fill:#e0e0e0"></rect><rect x="159.46" y="280.64" width="7.16" height="11.47" transform="translate(326.08 572.76) rotate(180)" style="fill:#e0e0e0"></rect><rect x="159.46" y="307.66" width="7.16" height="11.47" transform="translate(326.08 626.8) rotate(180)" style="fill:#e0e0e0"></rect><rect x="159.46" y="334.68" width="7.16" height="11.47" transform="translate(326.08 680.84) rotate(180)" style="fill:#e0e0e0"></rect><rect x="171.09" y="37.78" width="7.16" height="11.47" transform="translate(349.34 87.03) rotate(180)" style="fill:#e0e0e0"></rect><rect x="171.09" y="64.49" width="7.16" height="11.47" transform="translate(349.34 140.46) rotate(180)" style="fill:#e0e0e0"></rect><rect x="171.09" y="91.51" width="7.16" height="11.47" transform="translate(349.34 194.49) rotate(180)" style="fill:#e0e0e0"></rect><rect x="171.09" y="118.53" width="7.16" height="11.47" transform="translate(349.34 248.53) rotate(180)" style="fill:#e0e0e0"></rect><rect x="171.09" y="145.55" width="7.16" height="11.47" transform="translate(349.34 302.57) rotate(180)" style="fill:#e0e0e0"></rect><rect x="171.09" y="172.57" width="7.16" height="11.47" transform="translate(349.34 356.61) rotate(180)" style="fill:#e0e0e0"></rect><rect x="171.09" y="199.59" width="7.16" height="11.47" transform="translate(349.34 410.65) rotate(180)" style="fill:#e0e0e0"></rect><rect x="171.09" y="226.61" width="7.16" height="11.47" transform="translate(349.34 464.68) rotate(180)" style="fill:#e0e0e0"></rect><rect x="171.09" y="253.63" width="7.16" height="11.47" transform="translate(349.34 518.72) rotate(180)" style="fill:#e0e0e0"></rect><rect x="171.09" y="280.64" width="7.16" height="11.47" transform="translate(349.34 572.76) rotate(180)" style="fill:#e0e0e0"></rect><rect x="171.09" y="307.66" width="7.16" height="11.47" transform="translate(349.34 626.8) rotate(180)" style="fill:#e0e0e0"></rect><rect x="171.09" y="334.68" width="7.16" height="11.47" transform="translate(349.34 680.84) rotate(180)" style="fill:#e0e0e0"></rect><path d="M47.63,381.34c0,.2,5.84.37,13.06.37s13.06-.17,13.06-.37S67.9,381,60.69,381,47.63,381.13,47.63,381.34Z" style="fill:#fff"></path><path d="M96.13,196.24l6.24,7.8,2.83,1.28s2.27,5.92,3.12,5.94,6.53,1.6,6.53,1.6,5.38.79,6-.54,4-4.09,4-4.09.57-8.83,1.7-8.83a55,55,0,0,0,6-1.17v-4.54Z" style="fill:#f5f5f5"></path><path d="M84.13,124.27l2.75,2.45,3,1.4v4.95l2.26,3.54s5.35.87,6.19,0,5.36.39,5.36.39l3.09,3,1.13,1.92v2.63L104,149.79l-1.69,2.73-8.07,2.33s-7.35,1.43-7.36,2.56,0,3.08,0,3.08l-2.69,4.32-8-4.32Z" style="fill:#f5f5f5"></path><polygon points="16.68 387.75 23.32 374.74 28.09 360.93 47.48 352.96 65.27 343.67 84.38 347.12 101.11 358.54 121.03 360.66 144.66 378.45 171.74 388.81 171.74 392 16.68 392 16.68 387.75" style="fill:#e0e0e0"></polygon><path d="M63.62,388l2.82-3.67a1.44,1.44,0,0,1,1.12-.55h17.2a1.4,1.4,0,0,0,.82-.26l13.71-9.84a1.46,1.46,0,0,1,.51-.23L115.15,370a1.36,1.36,0,0,1,1,.14l11.62,6.35,10.54,6.31a1.35,1.35,0,0,0,1,.16l20.24-4.61.24-.08,11.64-4.91a1.41,1.41,0,0,1,.86-.08l13.93,3.15a1.34,1.34,0,0,1,.44.19l6.23,3.91a1.37,1.37,0,0,0,1,.2l13.56-2.36a1.52,1.52,0,0,1,.6,0l16.46,4.31.12,0,13,4.67a1.27,1.27,0,0,0,.48.08h7.74a1.39,1.39,0,0,1,1.22.72h0a1.41,1.41,0,0,1-1.22,2.1H64.73A1.41,1.41,0,0,1,63.62,388Z" style="fill:#ebebeb"></path><path d="M258.58,386.73l3.56-4.63a1.77,1.77,0,0,1,1.4-.69h21.67a1.73,1.73,0,0,0,1-.33l17.27-12.4a1.76,1.76,0,0,1,.64-.29L323.49,364a1.73,1.73,0,0,1,1.24.17l14.64,8,13.28,7.95a1.75,1.75,0,0,0,1.3.21l25.5-5.82a1.49,1.49,0,0,0,.3-.09l14.66-6.19a1.82,1.82,0,0,1,1.08-.1l17.56,4a1.76,1.76,0,0,1,.55.22l7.85,4.94a1.8,1.8,0,0,0,1.24.25l17.09-3a1.59,1.59,0,0,1,.75,0L461.27,380l.15,0,16.35,5.88a1.73,1.73,0,0,0,.6.11h9.74a1.76,1.76,0,0,1,1.55.9h0a1.77,1.77,0,0,1-1.55,2.64H260A1.77,1.77,0,0,1,258.58,386.73Z" style="fill:#e0e0e0"></path><path d="M273.54,51.19c4.39-.93,6.71-6.54,5-10.69s-6.39-6.56-10.88-6.52-8.74,2.13-12.34,4.82a8.48,8.48,0,0,0-8.41-7c-4,.14-7.65,4.65-7.95,8.64h-.09a9.43,9.43,0,0,0-8.58,9.71,7.67,7.67,0,0,0,.18,1.36c1,4.48,4.76,8,9.06,9.52-6.74.62-11.39,8.3-10,14.93s7.45,11.6,14.05,13.09,13.56,0,19.81-2.58c7.31-3,14.35-7.92,17.3-15.25S280.91,54,273.54,51.19Z" style="fill:#f5f5f5"></path><path d="M438.38,112.46c-3.87-5.39-11.81-5.32-14.77-4.07-6.23,2.65-9.25,11-6.13,17s11.69,8.38,17.45,4.81S442.38,117.93,438.38,112.46Z" style="fill:#f5f5f5"></path></g><g id="freepik--Floor--inject-2"><path d="M471.31,389.58c0,.14-99.09.42-221.3.61s-221.31.24-221.31.1,99.06-.42,221.31-.62S471.31,389.43,471.31,389.58Z" style="fill:#455a64"></path></g><g id="freepik--Plant--inject-2"><path d="M92.37,330.27c-.69.24-15,18.51-14.47,37.84s2.46,21.68,2.46,21.68l3.77.48s7.9-21.51,9.4-35.73S92.37,330.27,92.37,330.27Z" style="fill:#455a64"></path><path d="M92.37,330.27c-.69.24-15,18.51-14.47,37.84s2.46,21.68,2.46,21.68l3.77.48s7.9-21.51,9.4-35.73S92.37,330.27,92.37,330.27Z" style="opacity:0.30000000000000004"></path><path d="M79,324c-.64.36-11.46,22.11-7.43,43s6.37,23.16,6.37,23.16h3.82s3.9-24.39,2.8-40A89.9,89.9,0,0,0,79,324Z" style="fill:#263238"></path><path d="M88.5,331.89s2.54,27.9,1.06,35.26-7.85,23-7.85,23h3s9.52-13.86,15-24.92S95.5,337.33,88.5,331.89Z" style="fill:#455a64"></path><path d="M58.37,326.45c-.43.7-11.88,24.56-4.88,36.14s18.88,27.55,18.88,27.55h5.52s-17-27-17-36S58.37,326.45,58.37,326.45Z" style="fill:#263238"></path><path d="M104,326.45c.43.7,11.88,24.56,4.88,36.14S90,390.14,90,390.14H84.51s17-27,17-36S104,326.45,104,326.45Z" style="fill:#263238"></path><path d="M66.22,326.45s-3.28,19.08-1.66,32.43c1.77,14.54,13.1,31.39,13.1,31.39l4.88-.13-5.93-37.37S72.65,335,66.22,326.45Z" style="fill:#455a64"></path><path d="M41.18,341c-.21.53-.63,21.23,6.79,29.65s24.4,19.48,24.4,19.48l6.18-.08s-24-26.24-28.24-33S41.18,341,41.18,341Z" style="fill:#455a64"></path><path d="M116.08,341s-8.49,22.11-12.94,26.67-19.52,22.46-19.52,22.46h7.91s15.64-19.13,20.73-24.56S116.08,341,116.08,341Z" style="fill:#455a64"></path></g><g id="freepik--Rocks--inject-2"><path d="M387.61,457.11c1.17-.38,6-15.17,20.35-27.72s33.86-23.55,33.86-23.55l18.45,12.49,15.43,37.14Z" style="fill:#f5f5f5"></path><path d="M441.82,405.84l-14.71,23.69,4.06,4.68-9.85,2.19L411,456.68l-23.35.43s6.56-11.45,13.4-20.71C408.1,426.8,441.82,405.84,441.82,405.84Z" style="fill:#ebebeb"></path><polygon points="467.21 435.04 426.13 443.3 418.83 441.27 404.93 432.22 401.01 436.4 417.21 444.43 424.56 450.4 471 444.16 467.21 435.04" style="fill:#e0e0e0"></polygon><path d="M475.7,455.47a.61.61,0,0,1-.09-.17l-.23-.51-.88-2-3.22-7.58-11.23-26.78.09.11-18.46-12.48H442l-5.49,3.72c-7.89,5.37-15.38,10.53-22.08,15.37-3.33,2.44-6.53,4.75-9.25,7.17a63.42,63.42,0,0,0-6.41,7.91c-3.61,5.1-6.32,9.37-8.21,12.32l-2.15,3.4-.57.88a2.46,2.46,0,0,1-.2.29,1.41,1.41,0,0,1,.16-.32l.52-.9,2.07-3.46c1.83-3,4.5-7.28,8.08-12.42a61.72,61.72,0,0,1,6.41-8c2.76-2.48,5.94-4.79,9.27-7.24,6.69-4.88,14.17-10.05,22.07-15.42l5.49-3.72.14-.09.15.09,18.43,12.52.06,0,0,.06c4.52,11,8.35,20.27,11.05,26.85l3.1,7.64c.35.86.61,1.54.81,2,.08.21.14.38.2.52S475.71,455.46,475.7,455.47Z" style="fill:#263238"></path><path d="M25.79,452.06c.91-.3,4.65-11.75,15.75-21.46s26.21-18.23,26.21-18.23L82,422l12,28.74Z" style="fill:#f5f5f5"></path><path d="M67.75,412.37,56.36,430.71l3.15,3.62L51.88,436l-8,15.69-18.07.34s5.08-8.87,10.37-16C41.65,428.6,67.75,412.37,67.75,412.37Z" style="fill:#ebebeb"></path><polygon points="87.41 434.97 55.61 441.36 49.95 439.8 39.2 432.79 36.16 436.03 48.7 442.25 54.39 446.86 90.34 442.03 87.41 434.97" style="fill:#e0e0e0"></polygon><path d="M94,450.78a2.38,2.38,0,0,1-.26-.52L93,448.71c-.59-1.39-1.44-3.37-2.51-5.86-2.13-5.09-5.15-12.25-8.7-20.72l.08.11-14.29-9.65h.29l-4.25,2.87c-6.11,4.16-11.9,8.15-17.09,11.9C44,429.24,41.51,431,39.4,432.9a48.75,48.75,0,0,0-5,6.11c-2.8,3.94-4.9,7.25-6.37,9.52-.71,1.11-1.27,2-1.67,2.63l-.45.68a1.23,1.23,0,0,1-.16.22.92.92,0,0,1,.12-.25l.4-.71,1.59-2.68c1.41-2.31,3.47-5.64,6.24-9.63a49.15,49.15,0,0,1,5-6.21c2.14-1.92,4.6-3.71,7.18-5.61,5.18-3.77,11-7.78,17.08-11.94l4.25-2.87.14-.1.15.1,14.27,9.69.06,0,0,.06,8.54,20.79,2.38,5.92c.26.66.47,1.18.62,1.57A5.75,5.75,0,0,1,94,450.78Z" style="fill:#263238"></path></g><g id="freepik--Character--inject-2"><path d="M343.9,409.88l-1,39.35s40.46,16.22,41,23.77l-78,.79-1-63.62Z" style="fill:#263238"></path><path d="M306,473.79l-.1-6.05L380.8,469s3.48,1.5,3.12,4Z" style="fill:#455a64"></path><path d="M139.63,443.87c-5,2.77-11.65,1.14-15.62-2.94s-5.47-10.1-5.09-15.78a16.36,16.36,0,0,1,2.27-7.75c2.27-3.54,6.3-5.55,9-8.75a30.87,30.87,0,0,0,4.22-7.31,28.38,28.38,0,0,1,4.31-7.26,9.8,9.8,0,0,1,7.41-3.54c2.82.11,5.62,2.27,5.84,5.09l1.62,19.66Z" style="fill:#263238"></path><path d="M151.85,321.6c-1.08,1.65-5.39,10.64-5,30.41s2.5,58.6,2.5,58.6l.91,5.75h0a4.33,4.33,0,0,0-7.37-.13c-3.46,5.41-7.9,13.76-7.63,20.62.44,11.14,3,30.91,16.62,38.46s39.18,3.24,44.22-7.91,8-86.63,8.51-88.43-1.39-6.11,12.12-14-4-45.65-4-45.65Z" style="fill:#FF725E"></path><polygon points="168.8 364.04 172.51 329.73 183.24 329.73 181.12 367.12 168.8 364.04" style="fill:#263238"></polygon><path d="M218.39,363.66s10.16-.32,21.21,0,50.64-8.26,50.64-8.26l7.47,4.23v35.2c0,13.57,5,31.78,7.08,41.86-3.39,0-3,5.73,0,7.52l39.62-.53-.86-75.6s2.93-42.95-1.95-48.78-6.17-11.27-25.36-13.92-83.22,2.91-85.17,3.71-23.86,15.75-23.86,15.75Z" style="fill:#FF725E"></path><path d="M151.4,322.4,150.28,325s27,17.5,54.3,19.16,38.77-2.58,42.52-6.45,8.38-31,8.38-31l-5.2-6.1-44,19.4Z" style="opacity:0.30000000000000004"></path><path d="M147.37,369.6s41.51-18.31,57.21,9.37l-1,15.86s-9.46-17.25-55.4-6.49Z" style="fill:#263238"></path><path d="M155.79,477.45s0-19.9,4.33-24.54,36.29-7.77,39.19-2.56,1.45,22.2-8.72,26.38C184.3,479.31,162.9,483.37,155.79,477.45Z" style="fill:#263238"></path><path d="M150.74,423.87a24.14,24.14,0,0,0-2.18,20.83,87.43,87.43,0,0,0,9.76,19.38l7-10.56s-12.69-8.58-14.24-20.43C150.73,430.63,150.74,423.87,150.74,423.87Z" style="fill:#263238"></path><path d="M290.24,355.4s-1.6-43.71,26-50c0,0,12.15.5,18.85,5.8,0,0-30.93,14-37.38,48.45Z" style="fill:#263238"></path><path d="M297.71,360.66c-.95,1.66,30.4,7.15,46.1,3l-.26,9.27c-18.24,1.53-34,.49-45.84-4.62Z" style="fill:#263238"></path><path d="M189.27,340.37a7,7,0,0,1,1.25.51c.8.35,1.92.91,3.29,1.65a70.83,70.83,0,0,1,19,15c1,1.16,1.84,2.13,2.36,2.82a6.72,6.72,0,0,1,.78,1.1,7,7,0,0,1-.93-1c-.57-.65-1.42-1.58-2.48-2.7a83.65,83.65,0,0,0-8.89-8.17,85.88,85.88,0,0,0-10-6.78c-1.34-.78-2.43-1.38-3.2-1.79A6.49,6.49,0,0,1,189.27,340.37Z" style="fill:#263238"></path><path d="M234.37,337.76c.06.07-.92,1.08-2.34,2.83a47.2,47.2,0,0,0-8.4,15.39c-.71,2.15-1,3.52-1.11,3.5a3.24,3.24,0,0,1,.13-1,26.74,26.74,0,0,1,.62-2.62,40.68,40.68,0,0,1,8.47-15.53c.76-.85,1.4-1.52,1.87-2A3.85,3.85,0,0,1,234.37,337.76Z" style="fill:#263238"></path><path d="M314.41,341.83c0,.07-1.07.8-2.8,2.07a70.41,70.41,0,0,0-6.43,5.32,69.07,69.07,0,0,0-5.71,6.09c-1.37,1.64-2.17,2.7-2.24,2.66a3.16,3.16,0,0,1,.47-.82c.32-.51.83-1.22,1.48-2.07a51.7,51.7,0,0,1,5.65-6.24,53.18,53.18,0,0,1,6.57-5.25c.9-.59,1.64-1,2.17-1.35A3.33,3.33,0,0,1,314.41,341.83Z" style="fill:#263238"></path><path d="M151,430.55a12.55,12.55,0,0,1-.26-2.57c-.11-1.76-.24-3.86-.39-6.18s-.32-4.41-.45-6.18a13.54,13.54,0,0,1-.1-2.57,12.36,12.36,0,0,1,.47,2.53c.21,1.58.44,3.76.6,6.19s.24,4.61.24,6.2A11.91,11.91,0,0,1,151,430.55Z" style="fill:#263238"></path><path d="M162.79,451.58a24.15,24.15,0,0,0-3.94,5.08,23,23,0,0,0-1.94,6.12,4.9,4.9,0,0,1,0-1.93,13.9,13.9,0,0,1,4.28-8.14A5.28,5.28,0,0,1,162.79,451.58Z" style="fill:#455a64"></path><path d="M193,453.44s-.68-.19-1.91-.54a36.2,36.2,0,0,0-5.29-1.06,33.7,33.7,0,0,0-17.37,2.36,16.14,16.14,0,0,0-4.22,2.68,11.86,11.86,0,0,0-2.76,3.7,21.1,21.1,0,0,0-1.77,7.7c-.13,2.28-.11,4.13-.16,5.41,0,.64,0,1.14-.07,1.48a1.77,1.77,0,0,1-.06.51,1.93,1.93,0,0,1,0-.52q0-.59,0-1.47c0-1.28-.09-3.13,0-5.42a20.67,20.67,0,0,1,1.7-7.89,12.12,12.12,0,0,1,2.85-3.88,16.61,16.61,0,0,1,4.34-2.78,33,33,0,0,1,17.64-2.24,30.53,30.53,0,0,1,5.3,1.23c.61.19,1.07.38,1.39.51S193,453.42,193,453.44Z" style="fill:#455a64"></path><path d="M178.57,479.23a16.65,16.65,0,0,1,.94-2.48c.61-1.51,1.39-3.62,2.1-6s1.19-4.58,1.5-6.18a16,16,0,0,1,.56-2.59,11.11,11.11,0,0,1-.2,2.65,43.37,43.37,0,0,1-1.36,6.27,46.4,46.4,0,0,1-2.26,6A11.44,11.44,0,0,1,178.57,479.23Z" style="fill:#455a64"></path><path d="M326.94,435.31c0,.14-5.1.57-11.4.95s-11.43.58-11.44.43,5.1-.57,11.4-.95S326.93,435.16,326.94,435.31Z" style="fill:#263238"></path><path d="M176.14,400.49q-.27-8.08-.55-16.16c-.07-2-.16-4-1.32-5.8-1.66-2.52-5.28-3.94-8.73-4s-12.83,1-15.81,2.32l-.09.95,1.29,19.76c.15,2.28.09,6.76,1.7,8.67,2.46,2.93,7.51,1.61,11.76,2.09,3.57.4,7.75.64,10.07-1.52C176.2,405.13,176.22,402.7,176.14,400.49Z" style="fill:#263238"></path><path d="M194.54,395.39q-.31-6.67-.62-13.33a11.3,11.3,0,0,0-.89-4.73,5.63,5.63,0,0,0-5.3-2.88c-2.08.1-7.68,1.5-9.44,2.75l0,.79q.57,8.14,1.13,16.27c.13,1.88.29,3.86,1.29,5.35,1.52,2.3,4.41,2.66,7,2.84,2.15.14,4.67.12,6-1.79C194.65,399.22,194.62,397.21,194.54,395.39Z" style="fill:#263238"></path><path d="M201.16,216.5c-.25-2.38-.59-4.88-2-6.77-1.94-2.52-5.32-3.32-8.43-4-11.44-2.36-24-4.59-34.3.84-7,3.68-11.95,10.45-15.26,17.64-6.21,13.46-7.43,28.64-11.85,42.78-2.36,7.56-5.63,14.8-8.25,22.28s-4.58,15.32-4.18,23.23,3.38,15.94,9.35,21.14,15.16,7,22.08,3.12l54.14-86.35A246.53,246.53,0,0,0,201.16,216.5Z" style="fill:#263238"></path><polygon points="265.57 290.47 311.54 281.02 321.3 297.66 309.14 312.32 247.1 321.63 249.09 288.47 265.57 290.47" style="fill:#FF725E"></polygon><polygon points="265.57 290.47 311.54 281.02 321.3 297.66 309.14 312.32 247.1 321.63 249.09 288.47 265.57 290.47" style="opacity:0.30000000000000004"></polygon><path d="M261.87,215s5.53,1.92,9.27,11.55,11.8,62.07,11.8,62.07-23.5,10.74-24.93,10.92-9.21-6.26-9.21-6.26Z" style="fill:#FF725E"></path><path d="M174.19,202.21c-2.52.69-14.42,7-18.64,12.43s5.4,90.74,5.4,90.74h82.24c.6,0,21-59.12,21-59.12L261.87,215l-30.73-12.8S200.08,195.13,174.19,202.21Z" style="fill:#FF725E"></path><path d="M157,272.81s23.57-.32,30.25-12.73a56.94,56.94,0,0,0,6-16.54,6.56,6.56,0,0,1,6.22-5.37c16.11-.56,61.18-2,62.18-1.12,2.72,2.53-7.18,62.51-12.59,78.11s-4.8,21.33-24.22,23.24-71.33-12.73-77.06-18.15h0a9,9,0,0,1-2.27-9Z" style="fill:#263238"></path><path d="M238.73,207.07s8.81,16.08-.45,40l17.66,2.07s3.07-18.09,1.73-28.4c-.94-7.27-6.52-14.75-11-17.94s-5.23-1.64-8.5-.94S229.24,205,228,207Z" style="fill:#263238"></path><path d="M174.19,205.17s15.12,15.15,20.47,40.5h17.26s-6.65-17.93-10.3-25.35c-3.24-6.57-9.11-17.8-13.55-21s-5.23-1.63-8.5-.93-9,3.12-8.89,5.61Z" style="fill:#263238"></path><path d="M252.87,236.94a3,3,0,0,1-.64.07l-1.82.08-6.69.23-22.08.54c-8.63.19-16.45.21-22.06.77a10,10,0,0,0-3.6,1,5.26,5.26,0,0,0-2,1.9,4.12,4.12,0,0,0-.59,2.31,2,2,0,0,1-.08-.64,3.76,3.76,0,0,1,.49-1.77,5.45,5.45,0,0,1,2.06-2,10,10,0,0,1,3.7-1.1c5.64-.65,13.46-.73,22.09-.92l22.08-.39,6.7-.06h1.82A2.89,2.89,0,0,1,252.87,236.94Z" style="fill:#455a64"></path><path d="M280.6,276.4s3.17,11.42,4.26,17.51l18.27-5.44,14.9-8.83-9.49-22.39H273.77v7.95H254.63v10.64l20.67.77s-2.54,11.05-9.73,13.86l5.55,3.94S282.87,286.52,280.6,276.4Z" style="fill:#263238"></path><path d="M168.94,282.17s-.87-16.31,1.74-17.4,85.26-1.31,85.26,0V277s-32.22,2.35-47,5.22-24.58,11-33.06,9.08S168.94,282.17,168.94,282.17Z" style="fill:#455a64"></path><path d="M300.08,325c.76.61,14.14-10.44,14.14-10.44s-10.44-10.44-11.09-26.1l-18.27,5.44S287.25,314.57,300.08,325Z" style="fill:#263238"></path><path d="M303.13,288.47s0,.19,0,.54.06.89.14,1.57a46.57,46.57,0,0,0,1.16,5.8,35.63,35.63,0,0,0,3.13,8.54,47.16,47.16,0,0,0,6.8,9.49l.18.19-.21.16-14.12,10.46-.17.13-.15-.14-1.47-1.36-.76-.7c-.25-.24-.47-.51-.71-.77a45.78,45.78,0,0,1-8.75-14.63,65.45,65.45,0,0,1-3.65-14l0-.17.17-.05c5.58-1.73,10.18-3,13.38-3.88,1.6-.42,2.86-.72,3.71-.91l1-.2.32,0-.35.11-.94.26-3.68,1c-3.18.91-7.75,2.27-13.32,4l.14-.22a66,66,0,0,0,3.71,13.89A45.56,45.56,0,0,0,297.37,322c.23.26.45.52.69.76l.74.69,1.45,1.34h-.32l14.15-10.42,0,.35a47,47,0,0,1-6.81-9.63,35.09,35.09,0,0,1-3.06-8.65,41,41,0,0,1-1-5.86c-.06-.69-.07-1.22-.07-1.58A1.8,1.8,0,0,1,303.13,288.47Z" style="fill:#455a64"></path><path d="M303.13,319.07s-.15-.13-.4-.41-.62-.69-1.05-1.26a48,48,0,0,1-3.46-4.94,63,63,0,0,1-4.11-7.95c-.67-1.55-1.31-3.2-1.92-4.93l-.89-2.64a1.92,1.92,0,0,0-.7-1,.64.64,0,0,0-.88.31,2.42,2.42,0,0,0-.21,1.26c0,.43.16.92.24,1.38.19.92.38,1.82.62,2.7a44.9,44.9,0,0,0,1.62,5,44.18,44.18,0,0,0,4,7.9,39.12,39.12,0,0,0,3.64,4.76,21.5,21.5,0,0,1,1.48,1.64,3.34,3.34,0,0,1-.44-.37c-.27-.25-.7-.61-1.18-1.13a32.6,32.6,0,0,1-3.8-4.69,42.23,42.23,0,0,1-4.17-7.94,43,43,0,0,1-1.66-5c-.25-.89-.45-1.8-.64-2.73-.08-.48-.2-.91-.25-1.44a2.85,2.85,0,0,1,.28-1.55,1.19,1.19,0,0,1,.67-.59,1.13,1.13,0,0,1,.9.07,2.26,2.26,0,0,1,.94,1.27l.89,2.65q.9,2.58,1.88,4.91a66.57,66.57,0,0,0,4,7.95,57.54,57.54,0,0,0,3.3,5C302.67,318.43,303.16,319,303.13,319.07Z" style="fill:#455a64"></path><path d="M310.42,316.75s-.15-.13-.4-.41-.62-.69-1.06-1.26a48.25,48.25,0,0,1-3.45-4.94,62.48,62.48,0,0,1-4.11-8c-.67-1.55-1.31-3.2-1.92-4.93l-.89-2.63a1.88,1.88,0,0,0-.7-1,.64.64,0,0,0-.88.31,2.42,2.42,0,0,0-.21,1.26c0,.43.16.92.24,1.38.18.92.38,1.82.62,2.7a42.13,42.13,0,0,0,1.62,5,44,44,0,0,0,4,7.91,38.12,38.12,0,0,0,3.64,4.76c.95,1.05,1.51,1.6,1.48,1.64a3.34,3.34,0,0,1-.44-.37c-.28-.25-.7-.61-1.19-1.13a34.23,34.23,0,0,1-3.8-4.7,42.41,42.41,0,0,1-4.16-7.93,43,43,0,0,1-1.66-5c-.25-.89-.45-1.8-.64-2.73-.08-.48-.2-.91-.25-1.44a2.94,2.94,0,0,1,.27-1.55,1.26,1.26,0,0,1,.67-.59,1.15,1.15,0,0,1,.91.07,2.28,2.28,0,0,1,.94,1.26l.89,2.66c.6,1.72,1.23,3.36,1.88,4.9a66.09,66.09,0,0,0,4,8,59.61,59.61,0,0,0,3.31,5C310,316.11,310.45,316.72,310.42,316.75Z" style="fill:#455a64"></path><polygon points="308.81 272.89 306.38 257.25 323.45 257.25 323.45 272.89 308.81 272.89" style="fill:#263238"></polygon><path d="M320.68,254.92c0,.61,2,18.29,2,18.29s1.43,1.42,6.51,1.83,51,0,51,0l10.7-18.77Z" style="fill:#263238"></path><path d="M381.56,261.23h49.79v7.13s-50.19-.49-50.8,0S381.56,261.23,381.56,261.23Z" style="fill:#263238"></path><rect x="431.35" y="259.31" width="25.88" height="10.21" style="fill:#263238"></rect><polygon points="278.74 258.93 279.84 253.92 284.28 253.92 288.22 258.93 300.29 258.43 302.14 253.26 307.19 253.26 310.36 258.87 292.28 262.62 278.74 258.93" style="fill:#263238"></polygon><path d="M320.68,258.61v-6h1.77s-.54,2.95,3.91,3.49,7.83,1.07,7.83,1.07v2.74Z" style="fill:#263238"></path><path d="M390.83,256c.12.07-2.15,4.46-5.07,9.8s-5.4,9.63-5.53,9.56,2.14-4.46,5.07-9.81S390.7,255.92,390.83,256Z" style="fill:#455a64"></path><path d="M431.21,270.14a28.71,28.71,0,0,1-.26-5.41,28.8,28.8,0,0,1,.26-5.41,27.82,27.82,0,0,1,.26,5.41A27.74,27.74,0,0,1,431.21,270.14Z" style="fill:#455a64"></path><circle cx="435.08" cy="262.24" r="1.43" style="fill:#455a64"></circle><circle cx="435.08" cy="266.53" r="1.43" style="fill:#455a64"></circle><path d="M442.8,262.24a1.43,1.43,0,1,1-1.42-1.42A1.43,1.43,0,0,1,442.8,262.24Z" style="fill:#455a64"></path><path d="M442.8,266.53a1.43,1.43,0,1,1-1.42-1.43A1.42,1.42,0,0,1,442.8,266.53Z" style="fill:#455a64"></path><path d="M449.1,262.24a1.43,1.43,0,1,1-1.43-1.42A1.43,1.43,0,0,1,449.1,262.24Z" style="fill:#455a64"></path><path d="M449.1,266.53a1.43,1.43,0,1,1-1.43-1.43A1.42,1.42,0,0,1,449.1,266.53Z" style="fill:#455a64"></path><path d="M455.39,262.24a1.43,1.43,0,1,1-1.43-1.42A1.43,1.43,0,0,1,455.39,262.24Z" style="fill:#455a64"></path><path d="M455.39,266.53A1.43,1.43,0,1,1,454,265.1,1.42,1.42,0,0,1,455.39,266.53Z" style="fill:#455a64"></path><polygon points="255.94 253.92 255.94 239.35 273.31 243.59 273.31 251.42 255.94 253.92" style="fill:#263238"></polygon><path d="M273.31,243.59s5.06-3.65,5.49-3.65h33.81a.1.1,0,0,1,.11.11c0,1.38,0,14.56,0,14.56H279.37l-6.06-3.19Z" style="fill:#263238"></path><path d="M279.37,254.6a1.45,1.45,0,0,1-.43-.17l-1.22-.59-4.48-2.27.1,0L256,254.18l-.29,0v-.3c0-1.29,0-2.64,0-4,0-3.73,0-7.3,0-10.55V239l.3.08,12.49,3.14,3.57.94a9.22,9.22,0,0,1,1.26.39,7.32,7.32,0,0,1-1.3-.23l-3.6-.81-12.53-3,.3-.24c0,3.25,0,6.82,0,10.55,0,1.38,0,2.73,0,4l-.29-.25,17.39-2.41h.06l0,0,4.42,2.41,1.17.67A1.62,1.62,0,0,1,279.37,254.6Z" style="fill:#455a64"></path><path d="M327.48,264.31a5.33,5.33,0,0,1,6,1.92c2.55,3.27,7.43,11.42,5.76,14.89S318,299.53,318,299.53a14,14,0,0,1-10.39-3.88c-4.34-4.43.21-11.58.21-11.58l1.25-2.53s-5.08-7.8-5.82-11.43,2.91-5.38,2.91-5.38-2.94-4.07-.09-6.33a4.18,4.18,0,0,1,5.43.1,3.39,3.39,0,0,1,5.06-1.82c3.79,1.88,9,11.62,9,11.62A3.73,3.73,0,0,1,327.48,264.31Z" style="fill:#455a64"></path><path d="M316.83,279.05a77.21,77.21,0,0,1-5.5-7,77,77,0,0,1-5.08-7.33,76.58,76.58,0,0,1,5.5,7A76.2,76.2,0,0,1,316.83,279.05Z" style="fill:#263238"></path><path d="M322.67,274.13A17.94,17.94,0,0,1,321,271.8c-1-1.46-2.37-3.47-3.94-5.67s-3-4.14-4.1-5.56a18.34,18.34,0,0,1-1.66-2.34,14.52,14.52,0,0,1,1.95,2.11c1.14,1.36,2.66,3.29,4.23,5.49s2.91,4.26,3.83,5.78A13.65,13.65,0,0,1,322.67,274.13Z" style="fill:#263238"></path><path d="M332.09,278.26c-.13.06-1.45-2.33-3.31-5.15a44.91,44.91,0,0,1-3.25-5.2,31,31,0,0,1,3.69,4.92A22.33,22.33,0,0,1,332.09,278.26Z" style="fill:#263238"></path><path d="M281,276.54a12.05,12.05,0,0,1-3.49.19,11.84,11.84,0,0,1-3.48-.32,23.05,23.05,0,0,1,7,.13Z" style="fill:#455a64"></path><path d="M278.65,265.76a6.33,6.33,0,0,1-2.57.12,6.56,6.56,0,0,1-2.53-.4,6.45,6.45,0,0,1,2.56-.12A6.64,6.64,0,0,1,278.65,265.76Z" style="fill:#455a64"></path><path d="M279.24,265.85a19.3,19.3,0,0,1-.42-4.47,18.78,18.78,0,0,1,.11-4.5,39.61,39.61,0,0,1,.31,9Z" style="fill:#455a64"></path><path d="M311.26,254.64c0,.15-7.21.27-16.11.27s-16.13-.12-16.13-.27,7.22-.26,16.13-.26S311.26,254.5,311.26,254.64Z" style="fill:#455a64"></path><path d="M344.75,257.38c0,.15-5.18.26-11.58.26s-11.57-.11-11.57-.26,5.18-.26,11.57-.26S344.75,257.24,344.75,257.38Z" style="fill:#455a64"></path><path d="M357.46,259.38c.12.08-1.38,2.62-3.14,5.81s-3.1,5.82-3.23,5.76a47.3,47.3,0,0,1,6.37-11.57Z" style="fill:#455a64"></path><path d="M362.49,260a44.7,44.7,0,0,1-3.27,6,44.5,44.5,0,0,1-3.72,5.75,45.41,45.41,0,0,1,3.27-6A46.2,46.2,0,0,1,362.49,260Z" style="fill:#455a64"></path><path d="M304.29,273a4.48,4.48,0,0,1-1.07,0c-.68,0-1.67,0-2.89-.08-2.45-.08-5.82-.24-9.55-.45l-2.72-.15a20,20,0,0,1-2.57-.23,1.56,1.56,0,0,1-1.05-.82,2.73,2.73,0,0,1-.21-1.19c0-.71,0-1.38.06-2,0-1.23.08-2.21.12-2.9a5.19,5.19,0,0,1,.12-1.06,3.83,3.83,0,0,1,.09,1.07c0,.68,0,1.67,0,2.89v2c0,.69.2,1.41.95,1.55a22.71,22.71,0,0,0,2.48.18l2.72.14c3.73.21,7.1.42,9.54.61,1.22.09,2.2.17,2.88.24A4,4,0,0,1,304.29,273Z" style="fill:#455a64"></path><path d="M302.8,264.92a73.41,73.41,0,0,1-8.91,0,77.54,77.54,0,0,1-8.89-.55,74.9,74.9,0,0,1,8.91,0A75.87,75.87,0,0,1,302.8,264.92Z" style="fill:#455a64"></path><path d="M293,275.5c-.14,0-.3-.68-.34-1.54s0-1.57.17-1.58.3.69.35,1.55S293.13,275.5,293,275.5Z" style="fill:#455a64"></path><path d="M305.15,276.13a11.38,11.38,0,0,1-2.31,0c-1.42-.06-3.38-.15-5.55-.2s-4.13-.06-5.55-.07a11.71,11.71,0,0,1-2.31-.1,9.74,9.74,0,0,1,2.3-.27c1.43-.08,3.4-.13,5.57-.08s4.15.2,5.56.35A9.3,9.3,0,0,1,305.15,276.13Z" style="fill:#455a64"></path><g style="opacity:0.30000000000000004"><path d="M185.57,248.74a3.29,3.29,0,0,0-.67-1.89,1.33,1.33,0,0,0-1.79-.31,2,2,0,0,0-.5,1.1,303.06,303.06,0,0,0-5.46,35.08l8.14,2.76A254,254,0,0,0,185.57,248.74Z"></path></g><path d="M183.24,242.45c.14,0-1.06,9.15-2.68,20.39s-3.06,20.34-3.2,20.32,1.06-9.15,2.68-20.39S183.1,242.43,183.24,242.45Z" style="fill:#263238"></path><path d="M197,239.16a1.93,1.93,0,0,1-.23-.41l-.58-1.22-2.12-4.47c-1.81-3.77-4.43-8.92-7.62-14.44-1.59-2.77-3.18-5.36-4.66-7.69a23,23,0,0,0-4.51-5.69,9.15,9.15,0,0,0-4.35-2.06,13.36,13.36,0,0,0-1.8-.09,1.31,1.31,0,0,1,.46-.1,6,6,0,0,1,1.37,0,9,9,0,0,1,4.56,2,22.94,22.94,0,0,1,4.68,5.71c1.5,2.32,3.1,4.92,4.7,7.69,3.2,5.53,5.78,10.73,7.5,14.54.87,1.91,1.53,3.47,2,4.55l.49,1.26C197,239,197,239.15,197,239.16Z" style="fill:#455a64"></path><path d="M241.54,205.54a6.78,6.78,0,0,1,.6,1.15,30.86,30.86,0,0,1,1.33,3.27,41.12,41.12,0,0,1,1.43,5,46.44,46.44,0,0,1,.9,6.35,47.12,47.12,0,0,1,0,6.42A41.54,41.54,0,0,1,245,233a32.22,32.22,0,0,1-.87,3.42,5.23,5.23,0,0,1-.45,1.22c-.09,0,.45-1.79,1-4.7a50.73,50.73,0,0,0,.61-5.16,49.86,49.86,0,0,0,0-6.35,50.94,50.94,0,0,0-.85-6.29,48.07,48.07,0,0,0-1.31-5C242.22,207.25,241.45,205.58,241.54,205.54Z" style="fill:#455a64"></path><path d="M228.42,259.6a49.27,49.27,0,0,1,.07-7.08,49.33,49.33,0,0,1,.58-7.05,48.32,48.32,0,0,1-.06,7.08A48.4,48.4,0,0,1,228.42,259.6Z" style="fill:#455a64"></path><path d="M135.9,218.85c-2.25,1.77-3.58,4.44-4.84,7-4.28,8.72-8.62,17.65-9.8,27.29-.31,2.55-.34,5.34,1.14,7.44s4.33,3.08,7,3a23.94,23.94,0,0,0,7.6-2l6.88-43.34C141.6,216.47,138.15,217.07,135.9,218.85Z" style="fill:#263238"></path><path d="M120.43,274.14c-2.64,1.51-3.77,4.66-4.7,7.55-1.55,4.81-3.1,9.62-4.34,14.51a25,25,0,0,0-1,8.75,9.81,9.81,0,0,0,4.24,7.44c2.52,1.53,6.23,1.2,8-1.18l9.32-35.44C128.3,274,123.93,272.14,120.43,274.14Z" style="fill:#263238"></path><path d="M155.55,214.64s-8,9.51-9.71,17.42-6.13,34.19-5.91,41.5c.18,5.68-.06,32.67,6.19,39.41s47.91,3.51,53,2.63c2.32-.4,24-3.49,26.78-10.93.14-.38,11.76-.24,11.76-.24.68-3.57-.5-17.16-1.57-20.45h-9.67l-49.06-.82,5.88-40.71-.69-3.62S157.88,212,155.55,214.64Z" style="fill:#FF725E"></path><path d="M177.36,283.16a23.64,23.64,0,0,1-2.58,1.46,49.81,49.81,0,0,0-6,3.86c-2.21,1.69-4.08,3.38-5.44,4.59a19.33,19.33,0,0,1-2.26,1.92,15.21,15.21,0,0,1,2-2.18,54.11,54.11,0,0,1,5.38-4.74,37.06,37.06,0,0,1,6.1-3.78A13,13,0,0,1,177.36,283.16Z" style="fill:#263238"></path><path d="M177.49,282.16a12.37,12.37,0,0,1-2.33.42c-1.44.23-3.43.57-5.6,1.07s-4.1,1.06-5.49,1.5a12,12,0,0,1-2.28.64,9.51,9.51,0,0,1,2.16-1,42.57,42.57,0,0,1,5.5-1.66,43.5,43.5,0,0,1,5.66-.92A9.74,9.74,0,0,1,177.49,282.16Z" style="fill:#263238"></path><path d="M234.71,305.93l2.95-1.5,14.65,3.5s5.53,4.15,8.45,3.07,4.62-5.62,4.62-5.62c5.38-.85,3.53-6.68,3.53-6.68a6.41,6.41,0,0,0,4.31-4.92c.62-3.84-8.46-4.67-7.94-7.75s12.84-6.2,15.15-8.35,1.54-3.69,0-4.92-16.13,3.34-23,5.25a180.94,180.94,0,0,1-20.33,4.15c-7.75,1.27-5.42.65-5.42.65a80.79,80.79,0,0,0-.33,13.87c.56,6.38,3,8.74,3,8.74" style="fill:#455a64"></path><path d="M168.37,213.69a3.77,3.77,0,0,1,.89.5,23,23,0,0,1,2.24,1.63,33.57,33.57,0,0,1,6.25,6.66,34.16,34.16,0,0,1,4.23,8.1,25.38,25.38,0,0,1,.79,2.65,4.13,4.13,0,0,1,.18,1c-.09,0-.46-1.37-1.32-3.52a37.69,37.69,0,0,0-10.36-14.61C169.52,214.58,168.32,213.77,168.37,213.69Z" style="fill:#263238"></path><path d="M162,222.27a10.32,10.32,0,0,1,2.58.37,35.4,35.4,0,0,1,6,1.92,34.85,34.85,0,0,1,5.57,2.94,9.72,9.72,0,0,1,2.07,1.58,19.47,19.47,0,0,1-2.27-1.27A48.65,48.65,0,0,0,164.52,223,17.18,17.18,0,0,1,162,222.27Z" style="fill:#263238"></path><circle cx="160.5" cy="244.91" r="7.31" transform="translate(-88.41 90.68) rotate(-24.98)" style="opacity:0.30000000000000004"></circle><rect x="261.55" y="124.3" width="5.78" height="8.09" transform="translate(-24.44 74.05) rotate(-15.24)" style="fill:#455a64"></rect><rect x="257.61" y="125.29" width="6.64" height="18.75" transform="translate(-26.23 73.34) rotate(-15.24)" style="fill:#263238"></rect><path d="M200.3,177.89c-2.17-6.13-4.32-12.32-5.4-18.73s-1.06-13.14,1-19.3c.32-.93,3.09-7.21,4.07-7.13.71.05-1,5.88-.58,6.48,3.53,5.72,4.63,12.69,4.27,19.41a88.31,88.31,0,0,1-3.41,19.27" style="fill:#263238"></path><path d="M252.91,149.83a29.17,29.17,0,0,0-28.33-27.62l-1.51,0c-16.31.5-25,14.63-24,30.93l2.49,45.45a25.58,25.58,0,0,0,4.27,12.83l1.89,2.83a19.77,19.77,0,0,0,14.07,6.89h0a15.89,15.89,0,0,0,15.89-15.84,3.47,3.47,0,0,1,0-.47s15.72-2,16.35-17.64C254.3,179.58,253.66,164,252.91,149.83Z" style="fill:#ffbf9d"></path><path d="M237.64,204.78a37.79,37.79,0,0,1-20.22-6.59s4.58,11.91,20.24,10.93Z" style="fill:#ff9a6c"></path><path d="M248.82,159c-.28.28-1.94-1-4.35-1.08s-4.2,1.1-4.45.79c-.13-.13.17-.65.95-1.19a6.2,6.2,0,0,1,3.58-1,5.92,5.92,0,0,1,3.45,1.22C248.73,158.3,249,158.83,248.82,159Z" style="fill:#263238"></path><path d="M227.9,165.66a2.25,2.25,0,0,1-2.22,2.2,2.14,2.14,0,0,1-2.25-2.08,2.24,2.24,0,0,1,2.22-2.2A2.14,2.14,0,0,1,227.9,165.66Z" style="fill:#263238"></path><path d="M248.67,165.66a2.23,2.23,0,0,1-2.21,2.2,2.14,2.14,0,0,1-2.25-2.08,2.23,2.23,0,0,1,2.21-2.2A2.13,2.13,0,0,1,248.67,165.66Z" style="fill:#263238"></path><path d="M227,160.62c-.29.29-1.95-1-4.35-1.07s-4.2,1.09-4.46.79c-.12-.13.17-.65,1-1.19a6.17,6.17,0,0,1,3.58-1,5.88,5.88,0,0,1,3.45,1.23C226.94,160,227.18,160.5,227,160.62Z" style="fill:#263238"></path><path d="M233.91,175.28c0-.14,1.49-.35,3.93-.6.61,0,1.2-.15,1.31-.57a3.09,3.09,0,0,0-.36-1.83c-.53-1.5-1.1-3.08-1.68-4.73-2.34-6.73-4-12.25-3.74-12.35s2.38,5.29,4.72,12c.56,1.66,1.1,3.24,1.61,4.76a3.57,3.57,0,0,1,.25,2.42,1.58,1.58,0,0,1-1,.87,4.16,4.16,0,0,1-1,.11C235.43,175.45,233.91,175.42,233.91,175.28Z" style="fill:#263238"></path><path d="M226.8,156.74c-.32.61-2.37-.06-4.9-.14s-4.66.33-4.89-.31c-.1-.3.36-.85,1.27-1.33a7.61,7.61,0,0,1,3.8-.8,7.27,7.27,0,0,1,3.66,1.14C226.57,155.87,226.94,156.45,226.8,156.74Z" style="fill:#263238"></path><path d="M249.3,153.79c-.21.65-2.35.34-4.86.68s-4.53,1.11-4.87.53c-.14-.28.21-.9,1-1.53a7.49,7.49,0,0,1,3.61-1.42,7.2,7.2,0,0,1,3.79.5C248.93,153,249.39,153.48,249.3,153.79Z" style="fill:#263238"></path><path d="M200,164.71c-.26-.12-10.67-3.48-10.62,7.24s10.79,8.45,10.8,8.15S200,164.71,200,164.71Z" style="fill:#ffbf9d"></path><path d="M196.87,176.05c-.05,0-.19.13-.51.28a1.85,1.85,0,0,1-1.39,0c-1.13-.41-2.09-2.2-2.15-4.13a6.18,6.18,0,0,1,.51-2.67,2.13,2.13,0,0,1,1.4-1.44.94.94,0,0,1,1.1.5c.14.3.08.52.13.54s.23-.18.14-.63a1.19,1.19,0,0,0-.42-.67,1.42,1.42,0,0,0-1-.26,2.6,2.6,0,0,0-1.94,1.66,6.2,6.2,0,0,0-.64,3c.08,2.16,1.19,4.18,2.74,4.62a2,2,0,0,0,1.71-.29C196.85,176.31,196.9,176.07,196.87,176.05Z" style="fill:#ff9a6c"></path><path d="M245.75,132.18c1.73-1-3.55-6.53-7.83-8.41-6.48-2.83-16.33-4.51-22.25-2.75-7.12,2.12-13,5.75-16.52,12.31a42.2,42.2,0,0,0-4.45,21.57,12.81,12.81,0,0,0,1.59,6.52c1.53,2.35,4.42,3.81,4.34,7.07a4.48,4.48,0,0,0,1.15,3.26c2,2.06,4.36.07,5.44-1.91,2.3-4.22,2.5-9.24,2.64-14.05.1-3.41.2-6.9-.81-10.17-.55-1.78-1.41-3.46-1.86-5.26a6.46,6.46,0,0,1,.69-5.36,6.77,6.77,0,0,1,.86-.89,11.19,11.19,0,0,1,11.06-2.26c6.06,2.06,16.4,5.11,19.06,3,3.83-3,4.74-4.92,4.74-4.92Z" style="fill:#263238"></path><path d="M200,145.55s-.86,21.17,2.61,37.11c3.61,16.54,23.61,20,23.61,20s-18.62-10-19.49-26.94c-.79-15.32-.72-30.24-.72-30.24Z" style="fill:#455a64"></path><path d="M189.35,163.53c1,.54,4.84-3.21,20.09-2.8,3.1.08,3-9.78,6.47-9.56,20.56,1.31,49.37-4.71,49.37-4.71L257.69,142c-2.44-9.76-8.58-28.64-32.29-29.95-36.34-2-39.74,33.21-39.66,34.41C186.13,151.75,189.35,163.53,189.35,163.53Z" style="fill:#455a64"></path><path d="M194.75,155.75a17.68,17.68,0,0,0-12.05,2.59c-5.72,3.7-2.36,17.08-.85,20.6,1.84,4.28,15.18,6.75,18.72,7.08a10.72,10.72,0,0,0,10.34-6.66c1.63-4.58.94-16.56-1.47-18.63S201.75,156.05,194.75,155.75Z" style="fill:#263238"></path><path d="M205.17,181.47c-1.49,1.05,9.32,14.73,25.58,12.78l4.92-.76-.74-2.28a22.57,22.57,0,0,1-4.81.69c-13.05.7-17.64-5.78-22-12.34Z" style="fill:#263238"></path><path d="M243.23,191.74c0,1.48-2.22,2.68-4.95,2.68s-4.94-1.2-4.94-2.68,2.21-2.68,4.94-2.68S243.23,190.26,243.23,191.74Z" style="fill:#263238"></path><path d="M199,185.49c0-.05.67-.23,1.81-.8a13,13,0,0,0,4.09-3.39,14.23,14.23,0,0,0,2.93-7.24,17.39,17.39,0,0,0-1.55-9.43,9.7,9.7,0,0,0-3.17-3.75,12.89,12.89,0,0,0-4.27-1.78,37.43,37.43,0,0,0-7.92-.79,45.51,45.51,0,0,0-5.39.32c-1.26.15-2,.26-2,.22a1.71,1.71,0,0,1,.5-.14c.33-.08.81-.18,1.45-.28a36.94,36.94,0,0,1,5.41-.48,35.57,35.57,0,0,1,8,.69,13,13,0,0,1,4.45,1.82,10.15,10.15,0,0,1,3.35,3.94,17.62,17.62,0,0,1,1.55,9.72,14.24,14.24,0,0,1-3.12,7.41,12.33,12.33,0,0,1-4.28,3.34,9.68,9.68,0,0,1-1.39.52A2,2,0,0,1,199,185.49Z" style="fill:#455a64"></path><g style="opacity:0.30000000000000004"><path d="M192.73,133.3a4.62,4.62,0,0,0-1.89.23,3.91,3.91,0,0,0-1.74,1.87c-1.58,2.85-3.35,4.73-3.71,7.91-.07.61,1.15,2.41,1.81,2.49l22.6,2.32a4.8,4.8,0,0,0,3-.61,4.1,4.1,0,0,0,1.2-2,60.05,60.05,0,0,0,2.07-7.62c.23-1.09-.85-3.68-2-4C207.08,132.05,200,133.42,192.73,133.3Z"></path></g><path d="M191.35,130.77a4.31,4.31,0,0,0-1.89.23,4.05,4.05,0,0,0-1.73,2,27.92,27.92,0,0,0-2.9,9.82,1.21,1.21,0,0,0,1,1.34l22.62,2.59a4.46,4.46,0,0,0,3-.64,4.35,4.35,0,0,0,1.2-2.17,69.18,69.18,0,0,0,2-8.17,2.32,2.32,0,0,0-1.62-2.66C206.09,131.11,198.66,130.92,191.35,130.77Z" style="fill:#455a64"></path><path d="M191.35,130.77a4.56,4.56,0,0,1,.8,0h2.3c2,0,4.88.07,8.44.37,1.78.16,3.72.39,5.8.76,1,.18,2.1.42,3.19.68a16.1,16.1,0,0,1,1.67.49,2.56,2.56,0,0,1,1.27,1.38,3.17,3.17,0,0,1,0,1.9c-.12.59-.25,1.19-.37,1.8-.27,1.2-.57,2.43-.92,3.67l-.54,1.87a8.55,8.55,0,0,1-.75,1.89,2.76,2.76,0,0,1-1.71,1.29,7,7,0,0,1-2.09.17h-.1l-15.26-1.76-6.66-.79a6.35,6.35,0,0,1-.81-.12,1.36,1.36,0,0,1-.73-.49,1.47,1.47,0,0,1-.3-.81c0-.31,0-.52.07-.77a27.08,27.08,0,0,1,.5-2.78,27.89,27.89,0,0,1,1.51-4.6,14.22,14.22,0,0,1,1.76-3.22,2.64,2.64,0,0,1,2.08-.94,5,5,0,0,1,.61,0,.55.55,0,0,1,.2,0s-.28,0-.8,0a2.62,2.62,0,0,0-1.94,1A15,15,0,0,0,187,135a28.14,28.14,0,0,0-1.42,4.57,27.44,27.44,0,0,0-.46,2.74,6.21,6.21,0,0,0-.06.7,1,1,0,0,0,.22.58,1,1,0,0,0,.52.35c.19,0,.49.06.74.09l6.66.74,15.27,1.73h.06a6.44,6.44,0,0,0,1.93-.15,2.27,2.27,0,0,0,1.41-1.06,7.67,7.67,0,0,0,.69-1.77c.19-.62.37-1.24.55-1.85.35-1.23.65-2.45.92-3.65.13-.6.25-1.2.38-1.79a2.56,2.56,0,0,0,0-1.62,2.08,2.08,0,0,0-1-1.14,16.55,16.55,0,0,0-1.59-.47c-1.07-.27-2.13-.51-3.15-.7-2.05-.38-4-.63-5.76-.81-3.54-.35-6.42-.45-8.41-.54l-2.29-.1A6.19,6.19,0,0,1,191.35,130.77Z" style="fill:#263238"></path><path d="M199.92,131.07s3.34-14,13.94-18.34" style="fill:#455a64"></path><path d="M213.86,112.73a3.23,3.23,0,0,1-.8.5l-1,.51c-.36.22-.75.51-1.2.8a24,24,0,0,0-5.8,5.91,39,39,0,0,0-3.93,7.37c-.8,2-1.18,3.27-1.25,3.25a13.23,13.23,0,0,1,.9-3.38,33.38,33.38,0,0,1,3.85-7.53,22,22,0,0,1,6-5.93c.47-.28.88-.54,1.26-.75l1-.44A3.09,3.09,0,0,1,213.86,112.73Z" style="fill:#263238"></path><path d="M228.85,112.26a5.62,5.62,0,0,1-1.09.47l-1.29.49-1.68.72a29.18,29.18,0,0,0-8.7,5.84,44.92,44.92,0,0,0-6.4,8.38L208,130.88a4.27,4.27,0,0,1-.69,1,6,6,0,0,1,.52-1.06c.36-.67.89-1.64,1.58-2.81a40.32,40.32,0,0,1,6.34-8.57,27.51,27.51,0,0,1,8.92-5.8l1.73-.65c.51-.18,1-.3,1.33-.41A4.38,4.38,0,0,1,228.85,112.26Z" style="fill:#263238"></path><path d="M186,148.65c6.07.64,20.31,2.55,30.53,2.55" style="fill:#455a64"></path><path d="M216.53,151.2a6.54,6.54,0,0,1-1.21.09c-.78,0-1.9,0-3.29,0-2.77-.07-6.61-.3-10.82-.71s-8-.87-10.77-1.23l-3.25-.46a6.56,6.56,0,0,1-1.19-.23,4.7,4.7,0,0,1,1.21,0c.77,0,1.89.15,3.27.29l10.78,1.08c4.21.41,8,.7,10.79.86l3.27.17A5,5,0,0,1,216.53,151.2Z" style="fill:#263238"></path><path d="M186.07,151.12c5.43.65,18.17,2.55,27.31,2.55" style="fill:#455a64"></path><path d="M213.38,153.67a3.88,3.88,0,0,1-1.08.09c-.69,0-1.7,0-2.94,0-2.49-.07-5.92-.3-9.69-.71s-7.18-.87-9.63-1.23l-2.91-.46a4.06,4.06,0,0,1-1.06-.23,5,5,0,0,1,1.09,0l2.93.29,9.63,1.09c3.77.4,7.18.69,9.65.85l2.94.18A4.92,4.92,0,0,1,213.38,153.67Z" style="fill:#263238"></path><path d="M210,146.68a1.56,1.56,0,0,1,.49,0h1.42l5.21.15c4.39.11,10.47.28,17.15-.12a86,86,0,0,0,16.91-2.6c2.12-.56,3.82-1.11,5-1.51a17.13,17.13,0,0,1,1.82-.6s-.14.1-.44.23-.73.34-1.3.56c-1.15.46-2.83,1.06-4.95,1.68a79.07,79.07,0,0,1-17,2.76,161.68,161.68,0,0,1-17.2,0c-2.2-.11-4-.22-5.2-.31l-1.41-.12A2.29,2.29,0,0,1,210,146.68Z" style="fill:#263238"></path><path d="M235.67,183.51c0,.07-.51-.11-1.11-.57a5.41,5.41,0,0,0-2.5-1.19,20.28,20.28,0,0,0-2.88,0c-.75,0-1.23-.07-1.22-.15a4.33,4.33,0,0,1,1.2-.22,11.44,11.44,0,0,1,3-.11,4.92,4.92,0,0,1,2.66,1.43C235.34,183.18,235.69,183.44,235.67,183.51Z" style="fill:#263238"></path><path d="M199.92,199.06s.09-2.59,1.47-2.6,29.31,18.85,28.13,24.63-15.47.8-19.14-2.61S199.75,204.42,199.92,199.06Z" style="fill:#FF725E"></path><path d="M226.29,221.53a7.24,7.24,0,0,1-1.34-.32,15,15,0,0,1-1.54-.48c-.6-.22-1.28-.43-2-.76a38.71,38.71,0,0,1-5-2.47A40.85,40.85,0,0,1,206,208.74a40.34,40.34,0,0,1-3.31-4.49c-.44-.66-.78-1.3-1.09-1.85a14.3,14.3,0,0,1-.74-1.43,6,6,0,0,1-.54-1.27c.09,0,.93,1.73,2.68,4.35a46.74,46.74,0,0,0,3.36,4.38,43.34,43.34,0,0,0,10.31,8.65,43.65,43.65,0,0,0,4.9,2.56C224.43,220.91,226.32,221.43,226.29,221.53Z" style="fill:#263238"></path></g></svg>
